<svg id="line_icons" height="512" viewBox="0 0 74 74" width="512" xmlns="http://www.w3.org/2000/svg" data-name="line icons"><path d="m29.261 55.586a27.287 27.287 0 1 1 19.661-8.343 27.209 27.209 0 0 1 -19.661 8.343zm.009-52.575a25.287 25.287 0 1 0 17.552 7.071 25.229 25.229 0 0 0 -17.552-7.071z"/><path d="m29.255 49.229a20.931 20.931 0 0 1 -15.061-35.455 20.931 20.931 0 1 1 15.457 35.452c-.131.003-.264.003-.396.003zm-13.62-34.067a18.931 18.931 0 1 0 26.765-.494 18.8 18.8 0 0 0 -26.767.494z"/><path d="m65.559 71.707c-.067 0-.135 0-.2 0a8.445 8.445 0 0 1 -6.138-2.875l-15.88-18.1a1 1 0 0 1 1.5-1.32l15.881 18.1a6.428 6.428 0 1 0 8.889-9.222l-18.676-15.2a1 1 0 1 1 1.265-1.554l18.676 15.2a8.429 8.429 0 0 1 -5.316 14.97z"/></svg>